<svg width="30" height="30" viewBox="0 0 30 30" fill="none" xmlns="http://www.w3.org/2000/svg">
<g clip-path="url(#clip0_1_6)">
<path fill-rule="evenodd" clip-rule="evenodd" d="M27.4285 19.7144V12C27.4285 6.79275 23.2072 2.57144 18 2.57144C12.7928 2.57144 8.57144 6.79275 8.57144 12C8.57144 17.2072 12.7928 21.4285 18 21.4285H25.7144C26.661 21.4285 27.4285 20.661 27.4285 19.7144ZM18 0C11.3726 0 6 5.37258 6 12C6 18.6275 11.3726 24 18 24H25.7144C28.0812 24 30 22.0812 30 19.7144V12C30 5.37258 24.6275 0 18 0Z" fill="#549CF0"/>
<path d="M15.4285 12C15.4285 12.9468 14.6611 13.7143 13.7143 13.7143C12.7675 13.7143 12 12.9468 12 12C12 11.0532 12.7675 10.2857 13.7143 10.2857C14.6611 10.2857 15.4285 11.0532 15.4285 12Z" fill="#549CF0"/>
<path d="M19.7147 12C19.7147 12.9468 18.9473 13.7143 18.0005 13.7143C17.0537 13.7143 16.2861 12.9468 16.2861 12C16.2861 11.0532 17.0537 10.2857 18.0005 10.2857C18.9473 10.2857 19.7147 11.0532 19.7147 12Z" fill="#549CF0"/>
<path d="M23.9994 12C23.9994 12.9468 23.2318 13.7143 22.285 13.7143C21.3382 13.7143 20.5708 12.9468 20.5708 12C20.5708 11.0532 21.3382 10.2857 22.285 10.2857C23.2318 10.2857 23.9994 11.0532 23.9994 12Z" fill="#549CF0"/>
<path d="M9.42856 18C9.42856 18.9468 8.66106 19.7143 7.71429 19.7143C6.7675 19.7143 6 18.9468 6 18C6 17.0532 6.7675 16.2856 7.71429 16.2856C8.66106 16.2856 9.42856 17.0532 9.42856 18Z" fill="#549CF0"/>
<path fill-rule="evenodd" clip-rule="evenodd" d="M19.2735 24H22.3945C20.3197 27.5868 16.4417 30 12 30H4.28571C1.91879 30 0 28.0812 0 25.7143V18C0 13.1334 2.89698 8.94342 7.06051 7.06051L7.05786 7.06638C6.57835 8.12818 6.24887 9.27228 6.09641 10.4716C6.08817 10.5365 6.08045 10.6015 6.07323 10.6667C3.93716 12.3952 2.57144 15.0381 2.57144 18V25.7143C2.57144 26.661 3.33894 27.4285 4.28571 27.4285H12C14.9279 27.4285 17.5441 26.094 19.2735 24Z" fill="#549CF0"/>
</g>
<defs>
<clipPath id="clip0_1_6">
<rect width="30" height="30" fill="white"/>
</clipPath>
</defs>
</svg>
